<svg xmlns="http://www.w3.org/2000/svg" xmlns:svg="http://www.w3.org/2000/svg" xmlns:xlink="http://www.w3.org/1999/xlink" id="svg103" width="1200" height="600" version="1.1" viewBox="0 0 1200 600"><title id="title2">Artboard</title><defs id="defs58"><rect id="path-1" width="1920" height="1080" x="0" y="0"/><path id="path-3" d="M 1920,244.12872 C 1631.3684,185.43843 1437.8755,292.0472 1339.5211,563.95504 1191.9896,971.81679 478.60244,568.33856 271.06946,1078.8073 L 1920,1080.5 Z"/><filter id="filter-4" width="1.134" height="1.251" x="-.07" y="-.127" filterUnits="objectBoundingBox"><feOffset id="feOffset6" dx="-10" dy="-3" in="SourceAlpha" result="shadowOffsetOuter1"/><feGaussianBlur id="feGaussianBlur8" in="shadowOffsetOuter1" result="shadowBlurOuter1" stdDeviation="44"/><feColorMatrix id="feColorMatrix10" in="shadowBlurOuter1" type="matrix" values="0 0 0 0 0.0504613755 0 0 0 0 0.0284634296 0 0 0 0 0.0965523098 0 0 0 0.4 0"/></filter><path id="path-5" d="m 1920,387.45056 c -239.1712,-48.63304 -399.5069,39.7071 -481.0072,265.0204 -122.2503,337.96995 -713.39031,3.63235 -885.36013,426.62644 L 1920,1080.5 Z"/><filter id="filter-6" width="1.162" height="1.303" x="-.085" y="-.154" filterUnits="objectBoundingBox"><feOffset id="feOffset14" dx="-10" dy="-3" in="SourceAlpha" result="shadowOffsetOuter1"/><feGaussianBlur id="feGaussianBlur16" in="shadowOffsetOuter1" result="shadowBlurOuter1" stdDeviation="44"/><feColorMatrix id="feColorMatrix18" in="shadowBlurOuter1" type="matrix" values="0 0 0 0 0.0582890764 0 0 0 0 0.0331506119 0 0 0 0 0.110960145 0 0 0 0.4 0"/></filter><path id="path-7" d="m 1920,530.7724 c -189.7109,-38.57578 -316.8894,31.49571 -381.5354,210.21448 -96.9691,268.07812 -565.86206,2.88119 -702.26871,338.40052 L 1920,1080.5 Z"/><filter id="filter-8" width="1.204" height="1.383" x="-.107" y="-.194" filterUnits="objectBoundingBox"><feOffset id="feOffset22" dx="-10" dy="-3" in="SourceAlpha" result="shadowOffsetOuter1"/><feGaussianBlur id="feGaussianBlur24" in="shadowOffsetOuter1" result="shadowBlurOuter1" stdDeviation="44"/><feColorMatrix id="feColorMatrix26" in="shadowBlurOuter1" type="matrix" values="0 0 0 0 0.1234702 0 0 0 0 0.0727674741 0 0 0 0 0.229704484 0 0 0 0.4 0"/></filter><path id="path-9" d="m 1920,671.14927 c -141.2668,-28.72518 -235.9694,23.45306 -284.1076,156.53471 -72.2074,199.62252 -421.3651,2.14545 -522.9394,251.98752 L 1920,1080.5 Z"/><filter id="filter-10" width="1.274" height="1.514" x="-.143" y="-.26" filterUnits="objectBoundingBox"><feOffset id="feOffset30" dx="-10" dy="-3" in="SourceAlpha" result="shadowOffsetOuter1"/><feGaussianBlur id="feGaussianBlur32" in="shadowOffsetOuter1" result="shadowBlurOuter1" stdDeviation="44"/><feColorMatrix id="feColorMatrix34" in="shadowBlurOuter1" type="matrix" values="0 0 0 0 0.0968919544 0 0 0 0 0.0534580688 0 0 0 0 0.187896286 0 0 0 0.4 0"/></filter><path id="path-11" d="m 1920,796.80129 c -97.9044,-19.90786 -163.5375,16.25404 -196.8995,108.48569 -50.043,138.34752 -292.0253,1.4869 -362.4208,174.63882 L 1920,1080.5 Z"/><filter id="filter-12" width="1.395" height="1.741" x="-.207" y="-.376" filterUnits="objectBoundingBox"><feOffset id="feOffset38" dx="-10" dy="-3" in="SourceAlpha" result="shadowOffsetOuter1"/><feGaussianBlur id="feGaussianBlur40" in="shadowOffsetOuter1" result="shadowBlurOuter1" stdDeviation="44"/><feColorMatrix id="feColorMatrix42" in="shadowBlurOuter1" type="matrix" values="0 0 0 0 0.2 0 0 0 0 0.117647059 0 0 0 0 0.37254902 0 0 0 0.4 0"/></filter><filter id="filter-13" width="1.147" height="1.417" x="-.074" y="-.183" filterUnits="objectBoundingBox"><feOffset id="feOffset45" dx="0" dy="10" in="SourceAlpha" result="shadowOffsetOuter1"/><feGaussianBlur id="feGaussianBlur47" in="shadowOffsetOuter1" result="shadowBlurOuter1" stdDeviation="15"/><feColorMatrix id="feColorMatrix49" in="shadowBlurOuter1" result="shadowMatrixOuter1" type="matrix" values="0 0 0 0 0.2 0 0 0 0 0.117647059 0 0 0 0 0.37254902 0 0 0 0.7 0"/><feMerge id="feMerge55"><feMergeNode id="feMergeNode51" in="shadowMatrixOuter1"/><feMergeNode id="feMergeNode53" in="SourceGraphic"/></feMerge></filter></defs><g id="Artboard" fill="none" fill-rule="evenodd" stroke="none" stroke-width="1"><g id="Concept-3---elemenatary-Colours" transform="matrix(0.4626371,0,0,0.4626371,0.955815,1.0878211)"><rect id="rect581" width="2593.826" height="1296.913" x="-2.066" y="-2.351" fill="#331e5f" fill-rule="nonzero" style="stroke-width:1.27369"/><g id="g246" transform="matrix(1.3074006,0,0,1.1893961,-784.14426,-236.6335)"><g id="g593-Clipped" transform="translate(668.06193,208.0838)"><mask id="mask-2" fill="#fff"><use id="use61" xlink:href="#path-1"/></mask></g><path id="Path" stroke="#979797" d="M 1872.8098,1288.0838"/><g id="Path-2" fill-rule="nonzero" transform="translate(668.06193,208.0838)"><use id="use67" fill="#000" fill-opacity="1" filter="url(#filter-4)" xlink:href="#path-3"/><use id="use69" fill="#452981" xlink:href="#path-3"/></g><g id="g76" fill-rule="nonzero" transform="translate(668.06193,208.0838)"><use id="use72" fill="#000" fill-opacity="1" filter="url(#filter-6)" xlink:href="#path-5"/><use id="use74" fill="#7239b3" xlink:href="#path-5"/></g><g id="g82" fill-rule="nonzero" transform="translate(668.06193,208.0838)"><use id="use78" fill="#000" fill-opacity="1" filter="url(#filter-8)" xlink:href="#path-7"/><use id="use80" fill="#a56de2" xlink:href="#path-7"/></g><g id="g88" fill-rule="nonzero" transform="translate(668.06193,208.0838)"><use id="use84" fill="#000" fill-opacity="1" filter="url(#filter-10)" xlink:href="#path-9"/><use id="use86" fill="#cd9ef7" xlink:href="#path-9"/></g><g id="g94" fill-rule="nonzero" transform="translate(668.06193,208.0838)"><use id="use90" fill="#000" fill-opacity="1" filter="url(#filter-12)" xlink:href="#path-11"/><use id="use92" fill="#e4c6fa" xlink:href="#path-11"/></g></g><g id="text499" aria-label="Vala" style="font-size:254.35px;line-height:1.25;font-family:Lobster;-inkscape-font-specification:'Lobster, Normal';fill:#fff;stroke-width:3.81524" transform="matrix(1.0298294,0,0,1.0298294,-210.11176,86.201255)"><path id="path296" d="m 1283.5766,464.58315 q -18.0588,6.86745 -27.9785,21.3654 -9.9196,14.2436 -9.9196,35.1003 0,9.41095 1.7804,13.2262 1.7805,3.5609 1.7805,4.0696 -13.7349,0 -20.6024,-5.5957 -6.6131,-5.85005 -6.6131,-19.07625 0,-16.2784 13.2262,-31.5394 13.4806,-15.51535 34.3373,-24.92631 20.8567,-9.6653 41.7134,-9.6653 3.5609,0 10.174,0.5087 l 2.2891,156.42526 53.4135,-155.66221 h 17.8045 l -70.7093,189.49076 h -36.6264 z"/><path id="path298" d="m 1407.445,639.8303 q -14.4979,0 -24.1632,-9.91965 -9.6653,-9.91965 -9.6653,-31.0307 0,-18.8219 7.3761,-39.42425 7.6305,-20.8567 22.3828,-35.1003 15.0067,-14.49795 35.609,-14.49795 10.4284,0 15.5154,3.5609 5.087,3.5609 5.087,9.41095 v 1.78045 l 2.7978,-13.48055 h 36.6264 l -18.3132,86.479 q -1.0174,3.81525 -1.0174,8.1392 0,10.93705 10.4284,10.93705 7.1218,0 12.2088,-6.6131 5.3413,-6.6131 8.3935,-17.2958 h 10.6827 q -9.4109,27.4698 -23.4002,37.38945 -13.7349,9.6653 -27.7241,9.6653 -10.6827,0 -17.2958,-5.85005 -6.3588,-6.1044 -7.6305,-17.55015 -7.3762,10.42835 -16.5328,17.04145 -8.9022,6.35875 -21.3654,6.35875 z m 16.5328,-24.67195 q 6.3587,0 12.4631,-5.85005 6.3588,-6.1044 8.6479,-16.53275 l 12.2088,-57.4831 q 0,-3.30655 -2.5435,-6.35875 -2.5435,-3.30655 -7.8848,-3.30655 -10.174,0 -18.3132,11.95445 -8.1392,11.7001 -12.7175,28.4872 -4.5783,16.53275 -4.5783,29.25025 0,12.7175 3.5609,16.2784 3.8152,3.5609 9.1566,3.5609 z"/><path id="path300" d="m 1535.8915,639.8303 q -12.2088,0 -19.8393,-7.6305 -7.3761,-7.6305 -7.3761,-22.8915 0,-6.35875 2.0348,-16.53275 l 27.2154,-127.42935 37.6438,-5.08701 -29.2502,137.34901 q -1.0174,3.81525 -1.0174,8.1392 0,5.087 2.2891,7.37615 2.5435,2.0348 8.1392,2.0348 7.3762,0 13.7349,-6.1044 6.3588,-6.35875 9.1566,-16.2784 h 10.6827 q -9.4109,27.4698 -24.1632,37.38945 -14.7523,9.6653 -29.2503,9.6653 z"/><path id="path302" d="m 1609.1439,639.8303 q -14.498,0 -24.1633,-9.91965 -9.6653,-9.91965 -9.6653,-31.0307 0,-18.8219 7.3762,-39.42425 7.6305,-20.8567 22.3828,-35.1003 15.0066,-14.49795 35.609,-14.49795 10.4283,0 15.5153,3.5609 5.087,3.5609 5.087,9.41095 v 1.78045 l 2.7979,-13.48055 h 36.6264 l -18.3132,86.479 q -1.0174,3.81525 -1.0174,8.1392 0,5.087 2.2891,7.37615 2.5435,2.0348 8.1392,2.0348 3.5609,0 5.5957,-1.0174 -5.5957,14.2436 -10.6827,20.09365 -5.087,5.5957 -14.7523,5.5957 -10.4283,0 -17.0414,-6.1044 -6.3588,-6.35875 -7.8849,-17.55015 -15.5153,23.65455 -37.8981,23.65455 z m 16.5327,-24.67195 q 6.3588,0 12.4632,-5.85005 6.3587,-6.1044 8.6479,-16.53275 l 12.2088,-57.4831 q 0,-3.30655 -2.5435,-6.35875 -2.5435,-3.30655 -7.8849,-3.30655 -10.174,0 -18.3132,11.95445 -8.1392,11.7001 -12.7175,28.4872 -4.5783,16.53275 -4.5783,29.25025 0,12.7175 3.5609,16.2784 3.8153,3.5609 9.1566,3.5609 z"/></g></g></g><metadata id="metadata377"/></svg>